<svg width="14" height="15" viewBox="0 0 14 15" fill="none" xmlns="http://www.w3.org/2000/svg">
<path fill-rule="evenodd" clip-rule="evenodd" d="M5.25557 0.5C4.97943 0.5 4.75557 0.723857 4.75557 1V3.61548L2.49251 2.30863C2.25338 2.17054 1.94761 2.25247 1.80956 2.49163L0.0674076 5.50976C-0.0706419 5.74892 0.011303 6.05475 0.250437 6.19284L2.51349 7.49969L0.250328 8.8066C0.011194 8.94469 -0.0707512 9.25052 0.0672983 9.48968L1.80945 12.5078C1.9475 12.747 2.25327 12.8289 2.49241 12.6908L4.75557 11.3839V14C4.75557 14.2761 4.97942 14.5 5.25557 14.5H8.73972C9.01587 14.5 9.23972 14.2761 9.23972 14V11.3839L11.5063 12.6928C11.7454 12.8309 12.0512 12.7489 12.1892 12.5098L13.9314 9.49163C14.0694 9.25247 13.9875 8.94665 13.7484 8.80855L11.4818 7.49969L13.7482 6.19088C13.9874 6.05279 14.0693 5.74697 13.9313 5.50781L12.1891 2.48968C12.0511 2.25052 11.7453 2.16859 11.5062 2.30668L9.23972 3.61549V1C9.23972 0.723858 9.01587 0.5 8.73972 0.5H5.25557ZM6.99907 9.37256C8.03318 9.37256 8.87149 8.53408 8.87149 7.49976C8.87149 6.46544 8.03318 5.62695 6.99907 5.62695C5.96497 5.62695 5.12666 6.46544 5.12666 7.49976C5.12666 8.53408 5.96497 9.37256 6.99907 9.37256Z" fill="#AEB9E1"/>
</svg>
